<svg xmlns="http://www.w3.org/2000/svg" xmlns:xlink="http://www.w3.org/1999/xlink" width="379" zoomAndPan="magnify" viewBox="0 0 284.25 425.249985" height="567" preserveAspectRatio="xMidYMid meet" version="1.0"><defs><clipPath id="e8353292f1"><path d="M 21.789062 18.75 L 116.546875 18.75 L 116.546875 119.804688 L 21.789062 119.804688 Z M 21.789062 18.75 " clip-rule="nonzero"/></clipPath><clipPath id="8c5354a78f"><path d="M 112.808594 119.804688 L 25.527344 119.804688 C 23.460938 119.804688 21.789062 118.128906 21.789062 116.0625 L 21.789062 22.652344 C 21.789062 20.585938 23.460938 18.914062 25.527344 18.914062 L 112.808594 18.914062 C 114.871094 18.914062 116.546875 20.585938 116.546875 22.652344 L 116.546875 116.0625 C 116.546875 118.128906 114.871094 119.804688 112.808594 119.804688 Z M 112.808594 119.804688 " clip-rule="nonzero"/></clipPath><clipPath id="823a05e0b4"><path d="M 0.789062 0.855469 L 95.546875 0.855469 L 95.546875 101.804688 L 0.789062 101.804688 Z M 0.789062 0.855469 " clip-rule="nonzero"/></clipPath><clipPath id="948707d337"><path d="M 91.808594 101.804688 L 4.527344 101.804688 C 2.460938 101.804688 0.789062 100.128906 0.789062 98.0625 L 0.789062 4.652344 C 0.789062 2.585938 2.460938 0.914062 4.527344 0.914062 L 91.808594 0.914062 C 93.871094 0.914062 95.546875 2.585938 95.546875 4.652344 L 95.546875 98.0625 C 95.546875 100.128906 93.871094 101.804688 91.808594 101.804688 Z M 91.808594 101.804688 " clip-rule="nonzero"/></clipPath><clipPath id="fb6b028064"><rect x="0" width="96" y="0" height="102"/></clipPath><clipPath id="03e9949b99"><path d="M 1 1 L 137 1 L 137 137 L 1 137 Z M 1 1 " clip-rule="nonzero"/></clipPath><clipPath id="e09679185b"><path d="M 138.339844 71.527344 L 71.335938 138.53125 L -0.117188 67.078125 L 66.886719 0.0742188 Z M 138.339844 71.527344 " clip-rule="nonzero"/></clipPath><clipPath id="81b92fe80c"><path d="M 135.695312 74.171875 L 73.980469 135.886719 C 72.519531 137.347656 70.152344 137.347656 68.691406 135.886719 L 2.640625 69.835938 C 1.179688 68.375 1.179688 66.007812 2.640625 64.546875 L 64.355469 2.832031 C 65.816406 1.371094 68.183594 1.371094 69.644531 2.832031 L 135.695312 68.882812 C 137.15625 70.34375 137.15625 72.710938 135.695312 74.171875 Z M 135.695312 74.171875 " clip-rule="nonzero"/></clipPath><clipPath id="e4fcb6f279"><path d="M 0 0.144531 L 136 0.144531 L 136 136 L 0 136 Z M 0 0.144531 " clip-rule="nonzero"/></clipPath><clipPath id="a421f58d77"><path d="M 137.339844 70.527344 L 70.335938 137.53125 L -1.117188 66.078125 L 65.886719 -0.925781 Z M 137.339844 70.527344 " clip-rule="nonzero"/></clipPath><clipPath id="14b1406c4c"><path d="M 134.695312 73.171875 L 72.980469 134.886719 C 71.519531 136.347656 69.152344 136.347656 67.691406 134.886719 L 1.640625 68.835938 C 0.179688 67.375 0.179688 65.007812 1.640625 63.546875 L 63.355469 1.832031 C 64.816406 0.371094 67.183594 0.371094 68.644531 1.832031 L 134.695312 67.882812 C 136.15625 69.34375 136.15625 71.710938 134.695312 73.171875 Z M 134.695312 73.171875 " clip-rule="nonzero"/></clipPath><clipPath id="2973bacdfe"><rect x="0" width="136" y="0" height="136"/></clipPath><clipPath id="9e7d05712b"><path d="M 213.609375 68.242188 L 282.808594 68.242188 L 282.808594 424.113281 L 213.609375 424.113281 Z M 213.609375 68.242188 " clip-rule="nonzero"/></clipPath><clipPath id="6de51a8847"><path d="M 0.609375 0.242188 L 69.808594 0.242188 L 69.808594 356.113281 L 0.609375 356.113281 Z M 0.609375 0.242188 " clip-rule="nonzero"/></clipPath><clipPath id="191e3a95ee"><rect x="0" width="70" y="0" height="357"/></clipPath><clipPath id="72c635f929"><path d="M 34.5625 354.910156 L 282.800781 354.910156 L 282.800781 424.109375 L 34.5625 424.109375 Z M 34.5625 354.910156 " clip-rule="nonzero"/></clipPath><clipPath id="e0679e2075"><path d="M 0.5625 0.910156 L 248.800781 0.910156 L 248.800781 70.109375 L 0.5625 70.109375 Z M 0.5625 0.910156 " clip-rule="nonzero"/></clipPath><clipPath id="aaf0dbc59e"><rect x="0" width="249" y="0" height="71"/></clipPath><clipPath id="bed245d2e4"><path d="M 34.574219 164.316406 L 103.773438 164.316406 L 103.773438 424.109375 L 34.574219 424.109375 Z M 34.574219 164.316406 " clip-rule="nonzero"/></clipPath><clipPath id="216883f5ff"><path d="M 0.574219 0.316406 L 69.773438 0.316406 L 69.773438 260.109375 L 0.574219 260.109375 Z M 0.574219 0.316406 " clip-rule="nonzero"/></clipPath><clipPath id="122dc85658"><rect x="0" width="70" y="0" height="261"/></clipPath><clipPath id="ae9785890f"><path d="M 11.449219 206.738281 L 129.085938 206.738281 L 129.085938 275.9375 L 11.449219 275.9375 Z M 11.449219 206.738281 " clip-rule="nonzero"/></clipPath><clipPath id="afc3f70388"><path d="M 0.449219 0.738281 L 118.085938 0.738281 L 118.085938 69.9375 L 0.449219 69.9375 Z M 0.449219 0.738281 " clip-rule="nonzero"/></clipPath><clipPath id="4ab510ef1f"><rect x="0" width="119" y="0" height="70"/></clipPath></defs><g clip-path="url(#e8353292f1)"><g clip-path="url(#8c5354a78f)"><g transform="matrix(1, 0, 0, 1, 21, 18)"><g clip-path="url(#fb6b028064)"><g clip-path="url(#823a05e0b4)"><g clip-path="url(#948707d337)"><path fill="#66d1b5" d="M 95.546875 101.804688 L 0.789062 101.804688 L 0.789062 0.75 L 95.546875 0.75 Z M 95.546875 101.804688 " fill-opacity="1" fill-rule="nonzero"/></g></g></g></g></g></g><g clip-path="url(#03e9949b99)"><g clip-path="url(#e09679185b)"><g clip-path="url(#81b92fe80c)"><g transform="matrix(1, 0, 0, 1, 1, 1)"><g clip-path="url(#2973bacdfe)"><g clip-path="url(#e4fcb6f279)"><g clip-path="url(#a421f58d77)"><g clip-path="url(#14b1406c4c)"><path fill="#66d1b5" d="M 137.339844 70.527344 L 70.335938 137.53125 L -1.117188 66.078125 L 65.886719 -0.925781 Z M 137.339844 70.527344 " fill-opacity="1" fill-rule="nonzero"/></g></g></g></g></g></g></g></g><g clip-path="url(#9e7d05712b)"><g transform="matrix(1, 0, 0, 1, 213, 68)"><g clip-path="url(#191e3a95ee)"><g clip-path="url(#6de51a8847)"><path fill="#e4587c" d="M 69.808594 0.242188 L 69.808594 356.242188 L 0.609375 356.242188 L 0.609375 0.242188 Z M 69.808594 0.242188 " fill-opacity="1" fill-rule="nonzero"/></g></g></g></g><g clip-path="url(#72c635f929)"><g transform="matrix(1, 0, 0, 1, 34, 354)"><g clip-path="url(#aaf0dbc59e)"><g clip-path="url(#e0679e2075)"><path fill="#e4587c" d="M 248.800781 70.109375 L 0.65625 70.109375 L 0.65625 0.910156 L 248.800781 0.910156 Z M 248.800781 70.109375 " fill-opacity="1" fill-rule="nonzero"/></g></g></g></g><g clip-path="url(#bed245d2e4)"><g transform="matrix(1, 0, 0, 1, 34, 164)"><g clip-path="url(#122dc85658)"><g clip-path="url(#216883f5ff)"><path fill="#e4587c" d="M 0.574219 260.109375 L 0.574219 0.339844 L 69.773438 0.339844 L 69.773438 260.109375 Z M 0.574219 260.109375 " fill-opacity="1" fill-rule="nonzero"/></g></g></g></g><g clip-path="url(#ae9785890f)"><g transform="matrix(1, 0, 0, 1, 11, 206)"><g clip-path="url(#4ab510ef1f)"><g clip-path="url(#afc3f70388)"><path fill="#e4587c" d="M 118.085938 69.9375 L 0.5 69.9375 L 0.5 0.738281 L 118.085938 0.738281 Z M 118.085938 69.9375 " fill-opacity="1" fill-rule="nonzero"/></g></g></g></g></svg>